<svg width="22" height="21" viewBox="0 0 22 21" fill="none" xmlns="http://www.w3.org/2000/svg">
<path d="M21.2643 19.7618L21.2605 19.7655C21.1582 19.8636 21.0365 19.9416 20.9025 19.9948C20.7685 20.048 20.6248 20.0754 20.4796 20.0755C20.3575 20.0754 20.2361 20.0563 20.1205 20.0187L13.8247 17.9847L1.74338 6.4786C1.00481 5.77514 0.58992 4.82107 0.589966 3.82627C0.590012 2.83147 1.00499 1.87743 1.74362 1.17403C2.48225 0.470628 3.48401 0.0754875 4.52854 0.075531C5.57307 0.0755746 6.5748 0.470799 7.31336 1.17426L19.3947 12.6804L21.5302 18.6763C21.5975 18.8628 21.6082 19.0635 21.5612 19.2555C21.5141 19.4475 21.4113 19.623 21.2643 19.7618ZM6.31011 2.12967C5.83696 1.68248 5.19703 1.43208 4.53044 1.4333C3.86386 1.43452 3.22494 1.68726 2.7536 2.13617C2.28225 2.58509 2.0169 3.19359 2.01563 3.82844C2.01437 4.46329 2.2773 5.07275 2.74685 5.52336L4.33556 7.03642L7.8989 3.64273L6.31011 2.12967ZM18.1573 13.4128L8.90206 4.59814L5.33873 7.99183L14.594 16.8064L19.9866 18.5487L18.1573 13.4128Z" fill="#344054"/>
</svg>
